<mxfile host="app.diagrams.net" modified="2024-05-31T10:36:54.021Z" agent="Mozilla/5.0 (Windows NT 10.0; Win64; x64) AppleWebKit/537.36 (KHTML, like Gecko) Chrome/99.0.4844.84 Safari/537.36 HBPC/12.1.3.306" version="24.4.10" etag="QtJ8_xWPjekEi6qRUVBp" type="github">
  <diagram name="第 1 页" id="NPU7hm5LGNGhCcqN77LV">
    <mxGraphModel>
      <root>
        <mxCell id="0" />
        <mxCell id="1" parent="0" />
      </root>
    </mxGraphModel>
  </diagram>
</mxfile>
